{
  "accessors": [
    {
      "bufferView": 2,
      "componentType": 5126,
      "count": 1304,
      "max": [
        0.010195511393249035,
        0.014117029495537281,
        0.0
      ],
      "min": [
        -0.0103424908593297,
        -0.03163404017686844,
        -0.009999999776482582
      ],
      "type": "VEC3"
    },
    {
      "bufferView": 2,
      "byteOffset": 15648,
      "componentType": 5126,
      "count": 1304,
      "max": [
        0.9999804496765137,
        0.9999927282333374,
        1.0
      ],
      "min": [
        -0.9999842047691345,
        -0.9997169971466064,
        -1.0
      ],
      "type": "VEC3"
    },
    {
      "bufferView": 1,
      "componentType": 5126,
      "count": 1304,
      "max": [
        1.0,
        0.0
      ],
      "min": [
        0.0,
        0.0
      ],
      "type": "VEC2"
    },
    {
      "bufferView": 0,
      "componentType": 5125,
      "count": 2004,
      "type": "SCALAR"
    },
    {
      "bufferView": 2,
      "byteOffset": 31296,
      "componentType": 5126,
      "count": 6453,
      "max": [
        0.06971640139818192,
        0.02483500726521015,
        0.0
      ],
      "min": [
        -0.06734069436788559,
        -0.03860561177134514,
        -0.009999999776482582
      ],
      "type": "VEC3"
    },
    {
      "bufferView": 2,
      "byteOffset": 108732,
      "componentType": 5126,
      "count": 6453,
      "max": [
        0.9996688365936279,
        1.0,
        1.0
      ],
      "min": [
        -0.9995225667953491,
        -0.9999920129776001,
        -1.0
      ],
      "type": "VEC3"
    },
    {
      "bufferView": 1,
      "byteOffset": 10432,
      "componentType": 5126,
      "count": 6453,
      "max": [
        1.0,
        0.0
      ],
      "min": [
        0.0,
        0.0
      ],
      "type": "VEC2"
    },
    {
      "bufferView": 0,
      "byteOffset": 8016,
      "componentType": 5125,
      "count": 10224,
      "type": "SCALAR"
    },
    {
      "bufferView": 2,
      "byteOffset": 186168,
      "componentType": 5126,
      "count": 1938,
      "max": [
        0.020580699667334557,
        0.001455685356631875,
        0.0
      ],
      "min": [
        -0.018935048952698708,
        -0.0014530287589877844,
        -0.009999999776482582
      ],
      "type": "VEC3"
    },
    {
      "bufferView": 2,
      "byteOffset": 209424,
      "componentType": 5126,
      "count": 1938,
      "max": [
        0.9999119639396667,
        1.0,
        1.0
      ],
      "min": [
        -0.9999116063117981,
        -0.9999986290931702,
        -1.0
      ],
      "type": "VEC3"
    },
    {
      "bufferView": 1,
      "byteOffset": 62056,
      "componentType": 5126,
      "count": 1938,
      "max": [
        1.0,
        0.0
      ],
      "min": [
        0.0,
        0.0
      ],
      "type": "VEC2"
    },
    {
      "bufferView": 0,
      "byteOffset": 48912,
      "componentType": 5125,
      "count": 3156,
      "type": "SCALAR"
    },
    {
      "bufferView": 2,
      "byteOffset": 232680,
      "componentType": 5126,
      "count": 3124,
      "max": [
        0.02603243477642536,
        0.03474999964237213,
        0.0
      ],
      "min": [
        -0.025756729766726494,
        -0.01944739744067192,
        -0.009999999776482582
      ],
      "type": "VEC3"
    },
    {
      "bufferView": 2,
      "byteOffset": 270168,
      "componentType": 5126,
      "count": 3124,
      "max": [
        0.9999978542327881,
        0.9996197819709778,
        1.0
      ],
      "min": [
        -0.9999994039535522,
        -0.9999979734420776,
        -1.0
      ],
      "type": "VEC3"
    },
    {
      "bufferView": 1,
      "byteOffset": 77560,
      "componentType": 5126,
      "count": 3124,
      "max": [
        1.0,
        0.0
      ],
      "min": [
        0.0,
        0.0
      ],
      "type": "VEC2"
    },
    {
      "bufferView": 0,
      "byteOffset": 61536,
      "componentType": 5125,
      "count": 4884,
      "type": "SCALAR"
    },
    {
      "bufferView": 2,
      "byteOffset": 307656,
      "componentType": 5126,
      "count": 453,
      "max": [
        0.0031793052330613136,
        0.0023078634403645992,
        0.0
      ],
      "min": [
        -0.0033975106198340654,
        -0.0019019580213353038,
        -0.009999999776482582
      ],
      "type": "VEC3"
    },
    {
      "bufferView": 2,
      "byteOffset": 313092,
      "componentType": 5126,
      "count": 453,
      "max": [
        0.999966561794281,
        0.9992170333862305,
        1.0
      ],
      "min": [
        -0.9974221587181091,
        -0.9998616576194763,
        -1.0
      ],
      "type": "VEC3"
    },
    {
      "bufferView": 1,
      "byteOffset": 102552,
      "componentType": 5126,
      "count": 453,
      "max": [
        1.0,
        0.0
      ],
      "min": [
        0.0,
        0.0
      ],
      "type": "VEC2"
    },
    {
      "bufferView": 0,
      "byteOffset": 81072,
      "componentType": 5125,
      "count": 708,
      "type": "SCALAR"
    },
    {
      "bufferView": 2,
      "byteOffset": 318528,
      "componentType": 5126,
      "count": 266,
      "max": [
        0.003066779812797904,
        0.002136080525815487,
        0.0
      ],
      "min": [
        -0.0032944849226623774,
        -0.002126814564689994,
        -0.009999999776482582
      ],
      "type": "VEC3"
    },
    {
      "bufferView": 2,
      "byteOffset": 321720,
      "componentType": 5126,
      "count": 266,
      "max": [
        0.992219865322113,
        0.998551607131958,
        1.0
      ],
      "min": [
        -0.9870457053184509,
        -0.9999788403511047,
        -1.0
      ],
      "type": "VEC3"
    },
    {
      "bufferView": 1,
      "byteOffset": 106176,
      "componentType": 5126,
      "count": 266,
      "max": [
        1.0,
        0.0
      ],
      "min": [
        0.0,
        0.0
      ],
      "type": "VEC2"
    },
    {
      "bufferView": 0,
      "byteOffset": 83904,
      "componentType": 5125,
      "count": 420,
      "type": "SCALAR"
    },
    {
      "bufferView": 2,
      "byteOffset": 324912,
      "componentType": 5126,
      "count": 3189,
      "max": [
        0.03451704978942871,
        0.013095933943986893,
        0.0
      ],
      "min": [
        -0.022386722266674042,
        -0.011418246664106846,
        -0.009999999776482582
      ],
      "type": "VEC3"
    },
    {
      "bufferView": 2,
      "byteOffset": 363180,
      "componentType": 5126,
      "count": 3189,
      "max": [
        0.9996475577354431,
        0.999977171421051,
        1.0
      ],
      "min": [
        -0.9995412826538086,
        -0.9999929070472717,
        -1.0
      ],
      "type": "VEC3"
    },
    {
      "bufferView": 1,
      "byteOffset": 108304,
      "componentType": 5126,
      "count": 3189,
      "max": [
        1.0,
        0.0
      ],
      "min": [
        0.0,
        0.0
      ],
      "type": "VEC2"
    },
    {
      "bufferView": 0,
      "byteOffset": 85584,
      "componentType": 5125,
      "count": 5040,
      "type": "SCALAR"
    },
    {
      "bufferView": 2,
      "byteOffset": 401448,
      "componentType": 5126,
      "count": 3025,
      "max": [
        0.02321694605052471,
        0.013175136409699917,
        0.0
      ],
      "min": [
        -0.03369716927409172,
        -0.011315817944705486,
        -0.009999999776482582
      ],
      "type": "VEC3"
    },
    {
      "bufferView": 2,
      "byteOffset": 437748,
      "componentType": 5126,
      "count": 3025,
      "max": [
        0.9999309778213501,
        0.9999904632568359,
        1.0
      ],
      "min": [
        -0.9984453320503235,
        -0.9999852180480957,
        -1.0
      ],
      "type": "VEC3"
    },
    {
      "bufferView": 1,
      "byteOffset": 133816,
      "componentType": 5126,
      "count": 3025,
      "max": [
        1.0,
        0.0
      ],
      "min": [
        0.0,
        0.0
      ],
      "type": "VEC2"
    },
    {
      "bufferView": 0,
      "byteOffset": 105744,
      "componentType": 5125,
      "count": 4764,
      "type": "SCALAR"
    },
    {
      "bufferView": 2,
      "byteOffset": 474048,
      "componentType": 5126,
      "count": 1830,
      "max": [
        0.0175474900752306,
        0.01745682768523693,
        0.0
      ],
      "min": [
        -0.03592357411980629,
        -0.023696841672062874,
        -0.009999999776482582
      ],
      "type": "VEC3"
    },
    {
      "bufferView": 2,
      "byteOffset": 496008,
      "componentType": 5126,
      "count": 1830,
      "max": [
        0.9984265565872192,
        0.999896228313446,
        1.0
      ],
      "min": [
        -0.9999948143959045,
        -0.9999999403953552,
        -1.0
      ],
      "type": "VEC3"
    },
    {
      "bufferView": 1,
      "byteOffset": 158016,
      "componentType": 5126,
      "count": 1830,
      "max": [
        1.0,
        0.0
      ],
      "min": [
        0.0,
        0.0
      ],
      "type": "VEC2"
    },
    {
      "bufferView": 0,
      "byteOffset": 124800,
      "componentType": 5125,
      "count": 2880,
      "type": "SCALAR"
    },
    {
      "bufferView": 2,
      "byteOffset": 517968,
      "componentType": 5126,
      "count": 1810,
      "max": [
        0.03592357784509659,
        0.01745682768523693,
        0.0
      ],
      "min": [
        -0.0175474900752306,
        -0.023696841672062874,
        -0.009999999776482582
      ],
      "type": "VEC3"
    },
    {
      "bufferView": 2,
      "byteOffset": 539688,
      "componentType": 5126,
      "count": 1810,
      "max": [
        0.9999948143959045,
        0.999896228313446,
        1.0
      ],
      "min": [
        -0.998426079750061,
        -0.9999999403953552,
        -1.0
      ],
      "type": "VEC3"
    },
    {
      "bufferView": 1,
      "byteOffset": 172656,
      "componentType": 5126,
      "count": 1810,
      "max": [
        1.0,
        0.0
      ],
      "min": [
        0.0,
        0.0
      ],
      "type": "VEC2"
    },
    {
      "bufferView": 0,
      "byteOffset": 136320,
      "componentType": 5125,
      "count": 2880,
      "type": "SCALAR"
    }
  ],
  "asset": {
    "extras": {
      "author": "ʜᴀᴄᴋᴇʀ (https://sketchfab.com/infohack)",
      "license": "CC-BY-4.0 (http://creativecommons.org/licenses/by/4.0/)",
      "source": "https://sketchfab.com/3d-models/hacker-face-ecb2e2a0801e4914b8b5420fe8662300",
      "title": "Hacker Face"
    },
    "generator": "Sketchfab-12.68.0",
    "version": "2.0"
  },
  "bufferViews": [
    {
      "buffer": 0,
      "byteLength": 147840,
      "name": "floatBufferViews",
      "target": 34963
    },
    {
      "buffer": 0,
      "byteLength": 187136,
      "byteOffset": 147840,
      "byteStride": 8,
      "name": "floatBufferViews",
      "target": 34962
    },
    {
      "buffer": 0,
      "byteLength": 561408,
      "byteOffset": 334976,
      "byteStride": 12,
      "name": "floatBufferViews",
      "target": 34962
    }
  ],
  "buffers": [
    {
      "byteLength": 896384,
      "uri": "scene.bin"
    }
  ],
  "materials": [
    {
      "doubleSided": true,
      "name": "Scene_-_Root",
      "pbrMetallicRoughness": {
        "metallicFactor": 0.0,
        "roughnessFactor": 0.6
      }
    }
  ],
  "meshes": [
    {
      "name": "path4155__0",
      "primitives": [
        {
          "attributes": {
            "NORMAL": 1,
            "POSITION": 0,
            "TEXCOORD_0": 2
          },
          "indices": 3,
          "material": 0,
          "mode": 4
        }
      ]
    },
    {
      "name": "path4153__0",
      "primitives": [
        {
          "attributes": {
            "NORMAL": 5,
            "POSITION": 4,
            "TEXCOORD_0": 6
          },
          "indices": 7,
          "material": 0,
          "mode": 4
        }
      ]
    },
    {
      "name": "path4151__0",
      "primitives": [
        {
          "attributes": {
            "NORMAL": 9,
            "POSITION": 8,
            "TEXCOORD_0": 10
          },
          "indices": 11,
          "material": 0,
          "mode": 4
        }
      ]
    },
    {
      "name": "path4149__0",
      "primitives": [
        {
          "attributes": {
            "NORMAL": 13,
            "POSITION": 12,
            "TEXCOORD_0": 14
          },
          "indices": 15,
          "material": 0,
          "mode": 4
        }
      ]
    },
    {
      "name": "path4147__0",
      "primitives": [
        {
          "attributes": {
            "NORMAL": 17,
            "POSITION": 16,
            "TEXCOORD_0": 18
          },
          "indices": 19,
          "material": 0,
          "mode": 4
        }
      ]
    },
    {
      "name": "path4145__0",
      "primitives": [
        {
          "attributes": {
            "NORMAL": 21,
            "POSITION": 20,
            "TEXCOORD_0": 22
          },
          "indices": 23,
          "material": 0,
          "mode": 4
        }
      ]
    },
    {
      "name": "path4141__0",
      "primitives": [
        {
          "attributes": {
            "NORMAL": 25,
            "POSITION": 24,
            "TEXCOORD_0": 26
          },
          "indices": 27,
          "material": 0,
          "mode": 4
        }
      ]
    },
    {
      "name": "path4137__0",
      "primitives": [
        {
          "attributes": {
            "NORMAL": 29,
            "POSITION": 28,
            "TEXCOORD_0": 30
          },
          "indices": 31,
          "material": 0,
          "mode": 4
        }
      ]
    },
    {
      "name": "path4138__0",
      "primitives": [
        {
          "attributes": {
            "NORMAL": 33,
            "POSITION": 32,
            "TEXCOORD_0": 34
          },
          "indices": 35,
          "material": 0,
          "mode": 4
        }
      ]
    },
    {
      "name": "path4159__0",
      "primitives": [
        {
          "attributes": {
            "NORMAL": 37,
            "POSITION": 36,
            "TEXCOORD_0": 38
          },
          "indices": 39,
          "material": 0,
          "mode": 4
        }
      ]
    }
  ],
  "nodes": [
    {
      "children": [
        1
      ],
      "matrix": [
        1.0,
        0.0,
        0.0,
        0.0,
        0.0,
        2.220446049250313e-16,
        -1.0,
        0.0,
        0.0,
        1.0,
        2.220446049250313e-16,
        0.0,
        0.0,
        0.0,
        0.0,
        1.0
      ],
      "name": "Sketchfab_model"
    },
    {
      "children": [
        2
      ],
      "matrix": [
        0.009999999776482582,
        0.0,
        0.0,
        0.0,
        0.0,
        0.0,
        0.009999999776482582,
        0.0,
        0.0,
        -0.009999999776482582,
        0.0,
        0.0,
        0.0,
        0.0,
        0.0,
        1.0
      ],
      "name": "7bf81c417dcb4278b706a6998c8e27ac.fbx"
    },
    {
      "children": [
        3,
        5,
        7,
        9,
        11,
        13,
        15,
        17,
        19,
        21
      ],
      "name": "RootNode"
    },
    {
      "children": [
        4
      ],
      "matrix": [
        9518.7275390625,
        0.0,
        0.0,
        0.0,
        0.0,
        9518.72753906249,
        0.00041607682927293985,
        0.0,
        0.0,
        -0.00041607682927293985,
        9518.72753906249,
        0.0,
        10.922050476074219,
        312.0646667480469,
        43.06745529174805,
        1.0
      ],
      "name": "path4155"
    },
    {
      "mesh": 0,
      "name": "path4155__0"
    },
    {
      "children": [
        6
      ],
      "matrix": [
        9518.7275390625,
        0.0,
        0.0,
        0.0,
        0.0,
        9518.72753906249,
        0.00041607682927293985,
        0.0,
        0.0,
        -0.00041607682927293985,
        9518.72753906249,
        0.0,
        -1.135873794555664,
        678.2085571289063,
        43.06745529174805,
        1.0
      ],
      "name": "path4153"
    },
    {
      "mesh": 1,
      "name": "path4153__0"
    },
    {
      "children": [
        8
      ],
      "matrix": [
        9518.7275390625,
        0.0,
        0.0,
        0.0,
        0.0,
        9518.72753906249,
        0.00041607682927293985,
        0.0,
        0.0,
        -0.00041607682927293985,
        9518.72753906249,
        0.0,
        3.0519485473632813,
        544.9019165039063,
        43.06745529174805,
        1.0
      ],
      "name": "path4151"
    },
    {
      "mesh": 2,
      "name": "path4151__0"
    },
    {
      "children": [
        10
      ],
      "matrix": [
        9518.7275390625,
        0.0,
        0.0,
        0.0,
        0.0,
        9518.72753906249,
        0.00041607682927293985,
        0.0,
        0.0,
        -0.00041607682927293985,
        9518.72753906249,
        0.0,
        9.002876281738281,
        948.1337280273438,
        43.06745529174805,
        1.0
      ],
      "name": "path4149"
    },
    {
      "mesh": 3,
      "name": "path4149__0"
    },
    {
      "children": [
        12
      ],
      "matrix": [
        9518.7275390625,
        0.0,
        0.0,
        0.0,
        0.0,
        9518.72753906249,
        0.00041607682927293985,
        0.0,
        0.0,
        -0.00041607682927293985,
        9518.72753906249,
        0.0,
        -143.8560028076172,
        793.6262817382813,
        43.06745529174805,
        1.0
      ],
      "name": "path4147"
    },
    {
      "mesh": 4,
      "name": "path4147__0"
    },
    {
      "children": [
        14
      ],
      "matrix": [
        9518.7275390625,
        0.0,
        0.0,
        0.0,
        0.0,
        9518.72753906249,
        0.00041607682927293985,
        0.0,
        0.0,
        -0.00041607682927293985,
        9518.72753906249,
        0.0,
        167.5648193359375,
        795.2615966796875,
        43.06745529174805,
        1.0
      ],
      "name": "path4145"
    },
    {
      "mesh": 5,
      "name": "path4145__0"
    },
    {
      "children": [
        16
      ],
      "matrix": [
        9518.7275390625,
        0.0,
        0.0,
        0.0,
        0.0,
        9518.72753906249,
        0.00041607682927293985,
        0.0,
        0.0,
        -0.00041607682927293985,
        9518.72753906249,
        0.0,
        -472.90057373046875,
        1208.8173828125,
        43.06745529174805,
        1.0
      ],
      "name": "path4141"
    },
    {
      "mesh": 6,
      "name": "path4141__0"
    },
    {
      "children": [
        18
      ],
      "matrix": [
        9518.7275390625,
        0.0,
        0.0,
        0.0,
        0.0,
        9518.72753906249,
        0.00041607682927293985,
        0.0,
        0.0,
        -0.00041607682927293985,
        9518.72753906249,
        0.0,
        486.81329345703125,
        1208.3675537109375,
        43.06745529174805,
        1.0
      ],
      "name": "path4137"
    },
    {
      "mesh": 7,
      "name": "path4137__0"
    },
    {
      "children": [
        20
      ],
      "matrix": [
        9518.7275390625,
        0.0,
        0.0,
        0.0,
        0.0,
        9518.72753906249,
        0.00041607682927293985,
        0.0,
        0.0,
        -0.00041607682927293985,
        9518.72753906249,
        0.0,
        -280.59649658203125,
        1472.7755126953125,
        43.06745529174805,
        1.0
      ],
      "name": "path4138"
    },
    {
      "mesh": 8,
      "name": "path4138__0"
    },
    {
      "children": [
        22
      ],
      "matrix": [
        9518.7275390625,
        0.0,
        0.0,
        0.0,
        0.0,
        9518.72753906249,
        0.00041607682927293985,
        0.0,
        0.0,
        -0.00041607682927293985,
        9518.72753906249,
        0.0,
        302.0628356933594,
        1472.7755126953125,
        43.06745529174805,
        1.0
      ],
      "name": "path4159"
    },
    {
      "mesh": 9,
      "name": "path4159__0"
    }
  ],
  "scene": 0,
  "scenes": [
    {
      "name": "Sketchfab_Scene",
      "nodes": [
        0
      ]
    }
  ]
}
